<svg xmlns="http://www.w3.org/2000/svg" width="31.749" height="32" viewBox="0 0 31.749 32"><g transform="translate(1 1)"><path d="M4,15H0V3.5A3.5,3.5,0,0,1,3.5,0H15V4a3.5,3.5,0,0,0,0,7v4H11a3.5,3.5,0,0,1-7,0Z" transform="translate(29.749 0.25) rotate(90)" stroke="#fff" stroke-width="2"/><path d="M4,15H0V3.5A3.5,3.5,0,0,1,3.5,0H15V4a3.5,3.5,0,0,0,0,7v4H11a3.5,3.5,0,0,1-7,0Z" transform="translate(29.749 30) rotate(180)" stroke="#fff" stroke-width="2"/><path d="M4,15H0V3.5A3.5,3.5,0,0,1,3.5,0H15V4a3.5,3.5,0,0,0,0,7v4H11a3.5,3.5,0,0,1-7,0Z" transform="translate(0 30) rotate(-90)" stroke="#fff" stroke-width="2"/><path d="M4,15H0V3.5A3.5,3.5,0,0,1,3.5,0H15V4a3.5,3.5,0,0,0,0,7v4H11a3.5,3.5,0,0,1-7,0Z" stroke="#fff" stroke-width="2"/></g></svg>